<svg width="28" height="28" viewBox="0 0 28 28" fill="none" xmlns="http://www.w3.org/2000/svg">
<path opacity="0.4" d="M28 14C28 21.721 21.7196 28 14 28C6.2804 28 0 21.721 0 14C0 6.2804 6.2804 0 14 0C21.7196 0 28 6.2804 28 14Z" fill="#6B9080"/>
<path d="M19.9093 11.9805C19.9093 12.2479 19.8071 12.5167 19.6027 12.7211L14.7447 17.6029C14.5473 17.8003 14.2799 17.9109 13.9999 17.9109C13.7213 17.9109 13.4539 17.8003 13.2565 17.6029L8.39573 12.7211C7.98693 12.3109 7.98693 11.6473 8.39853 11.2371C8.81013 10.8283 9.47513 10.8297 9.88393 11.2399L13.9999 15.3741L18.1159 11.2399C18.5247 10.8297 19.1883 10.8283 19.5999 11.2371C19.8071 11.4415 19.9093 11.7117 19.9093 11.9805Z" fill="#6B9080"/>
</svg>
